<?xml version="1.0" encoding="UTF-8" standalone="no"?>
<!DOCTYPE svg PUBLIC "-//W3C//DTD SVG 1.1//EN" "http://www.w3.org/Graphics/SVG/1.1/DTD/svg11.dtd">
<svg width="100%" height="100%" viewBox="0 0 20 15" version="1.1" xmlns="http://www.w3.org/2000/svg" xmlns:xlink="http://www.w3.org/1999/xlink" xml:space="preserve" xmlns:serif="http://www.serif.com/" style="fill-rule:evenodd;clip-rule:evenodd;stroke-linejoin:round;stroke-miterlimit:2;">
    <g>
        <clipPath id="_clip1">
            <rect x="0" y="0" width="20" height="14.51"/>
        </clipPath>
        <g clip-path="url(#_clip1)">
            <path d="M18.904,14.51C18.67,14.51 18.441,14.435 18.252,14.296L10,8.213L1.748,14.296C1.632,14.382 1.501,14.444 1.361,14.478C1.221,14.513 1.076,14.52 0.933,14.499C0.791,14.477 0.654,14.428 0.531,14.354C0.407,14.28 0.299,14.182 0.214,14.066C0.128,13.95 0.066,13.819 0.031,13.679C-0.003,13.539 -0.01,13.394 0.011,13.252C0.054,12.964 0.21,12.706 0.444,12.533L9.348,5.962C9.537,5.823 9.765,5.748 10,5.748C10.235,5.748 10.463,5.823 10.652,5.962L19.556,12.533C19.742,12.67 19.88,12.862 19.95,13.082C20.02,13.302 20.019,13.538 19.947,13.757C19.875,13.976 19.735,14.167 19.548,14.302C19.36,14.438 19.135,14.51 18.904,14.51Z" style="fill:white;fill-rule:nonzero;"/>
            <path d="M18.904,8.761C18.67,8.761 18.441,8.686 18.252,8.547L10,2.464L1.748,8.547C1.514,8.72 1.221,8.793 0.933,8.75C0.646,8.706 0.387,8.551 0.214,8.317C0.041,8.083 -0.032,7.79 0.011,7.503C0.054,7.215 0.21,6.957 0.444,6.784L9.348,0.213C9.537,0.074 9.765,-0.001 10,-0.001C10.235,-0.001 10.463,0.074 10.652,0.213L19.556,6.784C19.742,6.921 19.88,7.113 19.95,7.333C20.02,7.553 20.019,7.789 19.947,8.008C19.875,8.228 19.735,8.418 19.548,8.553C19.36,8.688 19.135,8.761 18.904,8.761Z" style="fill:white;fill-rule:nonzero;"/>
        </g>
    </g>
</svg>
