<?xml version="1.0" encoding="UTF-8" standalone="no"?>
<!DOCTYPE svg PUBLIC "-//W3C//DTD SVG 1.1//EN" "http://www.w3.org/Graphics/SVG/1.1/DTD/svg11.dtd">
<svg width="100%" height="100%" viewBox="0 0 20 15" version="1.1" xmlns="http://www.w3.org/2000/svg" xmlns:xlink="http://www.w3.org/1999/xlink" xml:space="preserve" xmlns:serif="http://www.serif.com/" style="fill-rule:evenodd;clip-rule:evenodd;stroke-linejoin:round;stroke-miterlimit:2;">
    <path d="M10,8.761C9.765,8.761 9.537,8.686 9.348,8.547L0.445,1.978C0.329,1.892 0.231,1.784 0.157,1.661C0.083,1.538 0.034,1.401 0.012,1.259C-0.031,0.971 0.042,0.678 0.215,0.445C0.388,0.211 0.646,0.055 0.934,0.012C1.222,-0.031 1.515,0.042 1.749,0.215L10,6.297L18.251,0.215C18.367,0.129 18.498,0.067 18.638,0.032C18.778,-0.002 18.923,-0.009 19.066,0.012C19.208,0.033 19.345,0.083 19.468,0.157C19.592,0.231 19.7,0.329 19.785,0.445C19.871,0.56 19.933,0.692 19.968,0.831C20.002,0.971 20.009,1.116 19.988,1.259C19.966,1.401 19.917,1.538 19.843,1.661C19.769,1.784 19.671,1.892 19.555,1.978L10.652,8.547C10.463,8.686 10.235,8.761 10,8.761Z" style="fill:white;fill-rule:nonzero;"/>
    <path d="M10,14.509C9.765,14.51 9.537,14.435 9.348,14.296L0.445,7.726C0.211,7.553 0.055,7.295 0.012,7.007C-0.031,6.72 0.042,6.427 0.215,6.193C0.388,5.959 0.646,5.804 0.934,5.761C1.222,5.718 1.515,5.79 1.749,5.963L10,12.046L18.251,5.963C18.485,5.79 18.778,5.718 19.066,5.761C19.354,5.804 19.612,5.959 19.785,6.193C19.958,6.427 20.031,6.72 19.988,7.007C19.945,7.295 19.789,7.553 19.555,7.726L10.652,14.296C10.463,14.435 10.235,14.51 10,14.509Z" style="fill:white;fill-rule:nonzero;"/>
</svg>
